<mxfile host="65bd71144e">
    <diagram id="6IDhu1CYM2GVdefswvrU" name="Page-1">
        <mxGraphModel dx="990" dy="547" grid="1" gridSize="10" guides="1" tooltips="1" connect="1" arrows="1" fold="1" page="0" pageScale="1" pageWidth="850" pageHeight="1100" background="none" math="0" shadow="0">
            <root>
                <mxCell id="0"/>
                <mxCell id="1" parent="0"/>
                <mxCell id="2" value="Memory allocation&lt;br&gt;(VMA)" style="rounded=0;whiteSpace=wrap;html=1;" vertex="1" parent="1">
                    <mxGeometry x="-80" y="160" width="120" height="60" as="geometry"/>
                </mxCell>
                <mxCell id="3" value="Vulkan Init&lt;br&gt;(vk-bootstrap)" style="rounded=0;whiteSpace=wrap;html=1;" vertex="1" parent="1">
                    <mxGeometry x="200" y="160" width="120" height="60" as="geometry"/>
                </mxCell>
            </root>
        </mxGraphModel>
    </diagram>
</mxfile>